<?xml version="1.0" standalone="no"?>
<!DOCTYPE svg PUBLIC "-//W3C//DTD SVG 20010904//EN"
 "http://www.w3.org/TR/2001/REC-SVG-20010904/DTD/svg10.dtd">
<svg version="1.0" xmlns="http://www.w3.org/2000/svg"
 width="512.000000pt" height="512.000000pt" viewBox="0 0 512.000000 512.000000"
 preserveAspectRatio="xMidYMid meet">
<metadata>
Created by potrace 1.14, written by Peter Selinger 2001-2017
</metadata>
<g transform="translate(0.000000,512.000000) scale(0.100000,-0.100000)"
fill="#000000" stroke="none">
<path d="M2335 5019 c-16 -10 -40 -24 -53 -31 -12 -7 -157 -94 -322 -193 -165
-99 -308 -184 -318 -190 -63 -36 -473 -281 -502 -300 -19 -12 -75 -46 -125
-75 -134 -78 -158 -96 -180 -132 -20 -33 -20 -59 -22 -1868 -2 -1313 0 -1843
8 -1862 10 -24 158 -130 247 -177 34 -18 56 -10 194 73 1232 735 1368 818
1390 849 l23 32 3 772 2 772 43 -15 c23 -8 68 -14 100 -13 97 4 177 51 267
160 48 58 49 58 55 31 3 -15 28 -58 56 -95 l51 -68 -7 -67 c-4 -37 -19 -112
-35 -167 -15 -56 -35 -146 -44 -200 -10 -55 -19 -111 -21 -125 -5 -27 -20
-150 -30 -240 -8 -74 -13 -295 -8 -346 4 -37 9 -44 46 -62 23 -11 54 -23 70
-26 23 -5 27 -12 28 -44 2 -50 5 -108 13 -222 3 -52 8 -131 11 -175 13 -214
25 -406 30 -460 7 -85 5 -242 -4 -272 -17 -56 -42 -90 -92 -119 -74 -43 -72
-67 6 -77 61 -8 128 10 161 44 32 33 44 37 44 11 0 -29 26 -59 40 -46 17 17
26 190 35 684 6 304 13 492 20 540 13 88 16 97 30 97 8 0 17 -14 20 -31 17
-82 57 -165 175 -367 95 -162 263 -439 296 -488 45 -69 61 -179 43 -301 -6
-42 35 -39 77 5 49 52 74 106 74 160 l0 46 26 -20 c15 -12 30 -21 34 -21 24 0
11 36 -42 116 -32 49 -86 145 -120 214 -33 69 -91 188 -128 265 -38 77 -91
181 -119 231 -43 76 -52 101 -54 151 l-4 61 80 21 c94 25 188 69 241 113 32
27 36 34 31 62 -17 85 -80 246 -160 408 -38 77 -38 105 -8 293 3 22 6 99 5
172 -3 299 -75 516 -227 682 -80 88 -228 161 -326 161 -23 0 -42 5 -44 13 -11
32 -7 85 9 118 18 36 19 36 49 21 41 -21 135 -18 188 5 52 23 104 79 114 122
5 25 12 31 34 31 51 0 101 57 101 115 0 34 -24 80 -52 99 -16 11 -18 18 -11
28 23 27 31 84 18 116 -16 38 -42 52 -94 52 -41 0 -41 0 -41 39 0 57 -16 93
-54 119 -39 26 -109 32 -146 12 -24 -13 -40 -1 -40 30 0 20 -43 66 -79 85
-104 53 -249 9 -283 -87 -6 -16 -14 -25 -19 -22 -21 13 -113 12 -152 -2 -58
-21 -123 -87 -147 -151 -21 -56 -28 -123 -16 -159 5 -17 -1 -27 -29 -48 -30
-23 -47 -53 -50 -91 -2 -22 27 -91 48 -113 12 -13 39 -31 59 -39 36 -14 37
-16 32 -55 -8 -54 18 -119 55 -141 54 -31 144 -18 209 31 17 13 32 20 32 15 0
-22 66 -74 106 -84 39 -10 44 -15 44 -39 0 -23 -7 -30 -45 -45 -58 -22 -87
-51 -186 -190 -155 -218 -205 -259 -330 -272 l-59 -6 0 986 c0 604 -4 995 -10
1011 -6 16 -46 49 -110 91 -56 36 -105 65 -110 65 -4 0 -10 5 -12 11 -6 19
-71 18 -103 -2z m1425 -2271 c41 -87 77 -187 84 -232 1 -6 4 -15 7 -21 4 -5 7
-46 8 -90 l2 -80 -42 70 c-23 39 -52 84 -65 100 -19 26 -23 46 -29 155 -3 69
-10 142 -14 163 -5 20 -7 37 -4 37 2 0 26 -46 53 -102z"/>
</g>
</svg>
